<svg width="10" height="10" viewBox="0 0 10 10" fill="none" xmlns="http://www.w3.org/2000/svg">
<path id="linkedin" d="M2.25 10H0.124998V3.3125H2.25V10ZM1.1875 2.375C0.500001 2.375 0 1.875 0 1.1875C0 0.5 0.562501 0 1.1875 0C1.875 0 2.375 0.5 2.375 1.1875C2.375 1.875 1.875 2.375 1.1875 2.375ZM10 10H7.875V6.375C7.875 5.3125 7.4375 5 6.8125 5C6.1875 5 5.5625 5.5 5.5625 6.4375V10H3.4375V3.3125H5.4375V4.25C5.625 3.8125 6.375 3.125 7.4375 3.125C8.625 3.125 9.875 3.8125 9.875 5.875V10H10Z" fill="white"/>
</svg>
